<svg version="1.2" xmlns="http://www.w3.org/2000/svg" viewBox="0 0 863 225" width="3836" height="1000">
	<title>logo-svg</title>
	<style>
		.s0 { fill: #000000 } 
	</style>
	<g id="Layer">
		<path id="Layer" fill-rule="evenodd" class="s0" d="m7 10h851v205h-851zm844 6h-838v192h838z"/>
		<path id="Layer" class="s0" d="m306.6 57.5c0.5 1.3-2.1 7.2-4.8 10.8-1.3 1.7-1.5 1.7-5.5-0.3-13.8-6.6-24.9 4.5-18.4 18.5 1 2.2 7.3 11.4 14.1 20.5 15.6 20.9 18.4 26.6 18.4 37.5 0 16.9-9.7 27.7-26.4 29.2-9.2 0.9-26-4-26-7.5 0-1.7 5.8-12.2 6.8-12.2 0.4 0 3 1.1 5.7 2.5 9.8 4.8 19.9 2.5 23.2-5.3 1.3-3 1.4-4.6 0.5-8.9-1.4-6.8-4.3-11.6-16.3-27-5.5-7.1-11.6-16.2-13.7-20.2-3.5-7-3.7-8.1-3.7-16.5 0-6.9 0.5-9.9 1.9-12.6 3.5-6.6 8.7-11 15.6-13.1 7.3-2.2 27.2 0.9 28.6 4.6z"/>
		<path id="Layer" fill-rule="evenodd" class="s0" d="m569 52h2.8c5.2 0.1 16.6 3 22.9 6 8.5 3.9 18.1 13.2 22.6 21.8 5.6 10.7 7.1 17.7 7.1 33.2 0 15.5-1.5 22.5-7.1 33.3-4.4 8.4-13.9 17.4-22.5 21.6-5.8 2.7-18.9 6.1-23.8 6.1-2 0-2-0.2-2-61zm16.8 18c-0.4 0-0.8 19.3-0.8 43 0 23.6 0.4 43 0.8 43 1.7 0 9.9-5.8 12.5-9 14.2-16.9 14.2-51.1 0-68-1.5-1.8-4.8-4.6-7.2-6.2-2.5-1.5-4.9-2.8-5.3-2.8z"/>
		<path id="Layer" fill-rule="evenodd" class="s0" d="m786.8 54.4c8.3 4.3 14.4 13.5 18.4 28.1 1.9 7.1 2.2 10.4 2.2 30.5 0 20.1-0.3 23.4-2.2 30.5-4.1 14.6-9.7 23.1-18.6 27.8-6.3 3.3-17.6 3.1-23.8-0.6-12.5-7.3-18.8-22.7-20.4-49.7-1.1-19.3 2.1-41.3 7.7-52.1 3.9-7.7 10.5-13.6 17.9-16 3.9-1.3 15.2-0.4 18.8 1.5zm-24.7 26.9c-5.4 17.6-5.4 45.7 0 63.2 2.4 7.7 8.1 14.5 12.2 14.5 11.5 0 17.7-16.1 17.7-46.1 0-22.9-4-38.9-11-43.9-7.1-5.1-15.1 0.1-18.9 12.3z"/>
		<path id="Layer" class="s0" d="m54 53h26.5 26.5v7 7h-9.5-9.5v52.5 52.5h-7.5-7.5v-52.5-52.5h-9.5-9.5v-7z"/>
		<path id="Layer" class="s0" d="m156 53h8 8l0.1 26.7 0.1 26.8 13.1-26.7 13.2-26.7 8.3-0.1c4.5 0 8.2 0.2 8.2 0.4 0 0.3-6.7 14.1-15 30.7-8.2 16.6-15 30.8-15 31.5 0 0.7 7 13.1 15.6 27.6 8.6 14.4 15.9 26.9 16.1 27.5 0.4 1-1.7 1.3-8.3 1.3l-8.9-0.1-13.5-23.2-13.5-23.1-0.3 23.2-0.2 23.2h-8-8v-59.5z"/>
		<path id="Layer" class="s0" d="m353 53h26.5 26.5v7 7h-9.5-9.5v52.5 52.5h-7.5-7.5v-52.5-52.5h-9.5-9.5v-7z"/>
		<path id="Layer" class="s0" d="m454.9 53h8 8.1v47.2c0 44 0.2 47.6 1.9 51.4 2.3 5.2 5.5 7.4 10.3 7.4 5.4 0 8.7-1.9 11.1-6.4 2.2-4 2.2-5 2.5-51.9l0.3-47.7h7.5 7.5l-0.3 50.2-0.3 50.3-2.4 5.2c-2.7 6.1-8.2 11.5-13.7 13.4-2.2 0.8-7.7 1.4-12.4 1.4-7.5 0-9.1-0.4-13.7-2.9-5.6-3.1-9.2-7.4-12-14.6-1.6-4-1.8-9.6-2.1-53.8z"/>
		<path id="Layer" class="s0" d="m676 53h7.5 7.5v59.5 59.5h-7.5-7.5v-59.5z"/>
	</g>
</svg>